<svg width="22" height="22" viewBox="0 0 22 22" fill="none" xmlns="http://www.w3.org/2000/svg">
<path d="M11.0137 18.8183C8.87782 18.8183 6.74199 18.4791 4.71616 17.8008C3.94616 17.5349 3.35949 16.9941 3.10282 16.2883C2.83699 15.5824 2.92866 14.8033 3.35032 14.1066L4.40449 12.3558C4.62449 11.9891 4.82616 11.2558 4.82616 10.8249V8.17578C4.82616 4.76578 7.60366 1.98828 11.0137 1.98828C14.4237 1.98828 17.2012 4.76578 17.2012 8.17578V10.8249C17.2012 11.2466 17.4028 11.9891 17.6228 12.3649L18.6678 14.1066C19.062 14.7666 19.1353 15.5641 18.8695 16.2883C18.6037 17.0124 18.0262 17.5624 17.302 17.8008C15.2853 18.4791 13.1495 18.8183 11.0137 18.8183ZM11.0137 3.36328C8.36449 3.36328 6.20116 5.51745 6.20116 8.17578V10.8249C6.20116 11.4941 5.92616 12.4841 5.58699 13.0616L4.53282 14.8124C4.33116 15.1516 4.27616 15.5091 4.39532 15.8116C4.50532 16.1233 4.78032 16.3616 5.15616 16.4899C8.98782 17.7733 13.0487 17.7733 16.8803 16.4899C17.2103 16.3799 17.467 16.1324 17.5862 15.8024C17.7053 15.4724 17.6778 15.1149 17.4945 14.8124L16.4403 13.0616C16.092 12.4658 15.8262 11.4849 15.8262 10.8158V8.17578C15.8262 5.51745 13.672 3.36328 11.0137 3.36328Z" fill="#BABABA"/>
<path d="M12.7281 3.61008C12.664 3.61008 12.5998 3.60091 12.5356 3.58258C12.2698 3.50924 12.0131 3.45424 11.7656 3.41758C10.9865 3.31674 10.2348 3.37174 9.52895 3.58258C9.27228 3.66508 8.99728 3.58258 8.82312 3.39008C8.64895 3.19758 8.59395 2.92258 8.69478 2.67508C9.07062 1.71258 9.98728 1.08008 11.0323 1.08008C12.0773 1.08008 12.994 1.70341 13.3698 2.67508C13.4615 2.92258 13.4156 3.19758 13.2414 3.39008C13.104 3.53674 12.9115 3.61008 12.7281 3.61008Z" fill="#BABABA"/>
<path d="M11.0156 20.9102C10.1081 20.9102 9.22812 20.5435 8.58646 19.9018C7.94479 19.2602 7.57812 18.3802 7.57812 17.4727H8.95312C8.95312 18.0135 9.17312 18.5452 9.55812 18.9302C9.94313 19.3152 10.4748 19.5352 11.0156 19.5352C12.1523 19.5352 13.0781 18.6093 13.0781 17.4727H14.4531C14.4531 19.3702 12.9131 20.9102 11.0156 20.9102Z" fill="#BABABA"/>
</svg>
