<svg width="25" height="25" viewBox="0 0 25 25" fill="none" xmlns="http://www.w3.org/2000/svg">
<path fill-rule="evenodd" clip-rule="evenodd" d="M6.26118 2.03613L4.66116 5.55562H2.08336C1.53082 5.55562 1.00091 5.77512 0.610201 6.16582C0.219496 6.55653 0 7.08644 0 7.63898V10.2529L0.698619 10.6015C4.36288 12.4336 8.40338 13.3875 12.5001 13.3875C16.5969 13.3875 20.6374 12.4336 24.3017 10.6015L25.0003 10.2529V7.63898C25.0003 7.08644 24.7808 6.55653 24.3901 6.16582C23.9994 5.77512 23.4695 5.55562 22.9169 5.55562H20.3391L18.7391 2.03613C18.4633 1.42905 18.0186 0.914208 17.458 0.553138C16.8974 0.192068 16.2447 3.91396e-05 15.578 0H9.42233C8.75554 3.91396e-05 8.10286 0.192068 7.54229 0.553138C6.98172 0.914208 6.53697 1.42905 6.26118 2.03613ZM9.42233 2.77781C9.28905 2.77785 9.1586 2.81624 9.04654 2.8884C8.93448 2.96056 8.84556 3.06344 8.79038 3.18476L7.71259 5.55562H17.2877L16.2099 3.18476C16.1547 3.06344 16.0658 2.96056 15.9538 2.8884C15.8417 2.81624 15.7112 2.77785 15.578 2.77781H9.42233Z" fill="#228CDB"/>
<path d="M25.0003 13.3512C21.517 15.0043 17.7403 15.9499 13.889 16.1332V18.0554C13.889 18.4238 13.7427 18.7771 13.4822 19.0375C13.2218 19.298 12.8685 19.4443 12.5001 19.4443C12.1318 19.4443 11.7785 19.298 11.518 19.0375C11.2576 18.7771 11.1112 18.4238 11.1112 18.0554V16.1332C7.30564 15.9512 3.52782 15.0248 0 13.3512V22.9166C0 23.4691 0.219496 23.999 0.610201 24.3897C1.00091 24.7804 1.53082 24.9999 2.08336 24.9999H22.9169C23.4695 24.9999 23.9994 24.7804 24.3901 24.3897C24.7808 23.999 25.0003 23.4691 25.0003 22.9166V13.3512Z" fill="#228CDB"/>
</svg>
