<svg width="32" height="32" viewBox="0 0 32 32" fill="none" xmlns="http://www.w3.org/2000/svg">
<path d="M16.0026 30.3339C10.6693 30.3339 6.33594 26.5072 6.33594 21.8005V16.8672C6.33594 16.3205 6.78927 15.8672 7.33594 15.8672C7.8826 15.8672 8.33594 16.3205 8.33594 16.8672C8.33594 20.3605 11.6293 23.0005 16.0026 23.0005C20.3759 23.0005 23.6693 20.3605 23.6693 16.8672C23.6693 16.3205 24.1226 15.8672 24.6693 15.8672C25.2159 15.8672 25.6693 16.3205 25.6693 16.8672V21.8005C25.6693 26.5072 21.3359 30.3339 16.0026 30.3339ZM8.33594 21.9472C8.42927 25.4805 11.8293 28.3339 16.0026 28.3339C20.1759 28.3339 23.5759 25.4805 23.6693 21.9472C21.9359 23.8272 19.1893 25.0005 16.0026 25.0005C12.8159 25.0005 10.0826 23.8272 8.33594 21.9472Z" fill="#1967D3"/>
<path d="M16.0026 18.3327C12.3226 18.3327 9.01592 16.6793 7.40259 14.0127C6.70925 12.8793 6.33594 11.5594 6.33594 10.1994C6.33594 7.90602 7.36261 5.74602 9.21594 4.11935C11.0293 2.53268 13.4426 1.66602 16.0026 1.66602C18.5626 1.66602 20.9626 2.53268 22.7893 4.10602C24.6426 5.74602 25.6693 7.90602 25.6693 10.1994C25.6693 11.5594 25.296 12.866 24.6026 14.0127C22.9893 16.6793 19.6826 18.3327 16.0026 18.3327ZM16.0026 3.66602C13.9226 3.66602 11.976 4.35935 10.5226 5.63935C9.10929 6.86602 8.33594 8.49269 8.33594 10.1994C8.33594 11.1994 8.60259 12.1327 9.10925 12.9727C10.3759 15.0527 13.0159 16.3327 16.0026 16.3327C18.9893 16.3327 21.6293 15.0393 22.896 12.9727C23.416 12.1327 23.6693 11.1994 23.6693 10.1994C23.6693 8.49269 22.8959 6.86601 21.4693 5.61268C20.0159 4.35935 18.0826 3.66602 16.0026 3.66602Z" fill="#1967D3"/>
<path d="M16.0026 24.9993C10.4959 24.9993 6.33594 21.506 6.33594 16.866V10.1994C6.33594 5.49268 10.6693 1.66602 16.0026 1.66602C18.5626 1.66602 20.9626 2.53268 22.7893 4.10602C24.6426 5.74602 25.6693 7.90602 25.6693 10.1994V16.866C25.6693 21.506 21.5093 24.9993 16.0026 24.9993ZM16.0026 3.66602C11.7759 3.66602 8.33594 6.59935 8.33594 10.1994V16.866C8.33594 20.3594 11.6293 22.9993 16.0026 22.9993C20.3759 22.9993 23.6693 20.3594 23.6693 16.866V10.1994C23.6693 8.49268 22.8959 6.86601 21.4693 5.61268C20.0159 4.35935 18.0826 3.66602 16.0026 3.66602Z" fill="#1967D3"/>
</svg>
