<svg width="26" height="26" viewBox="0 0 26 26" fill="none" xmlns="http://www.w3.org/2000/svg">
<path d="M2.93451 22.587H4.91368L18.4901 9.01058L16.5109 7.03141L2.93451 20.6078V22.587ZM0.156738 25.3647V19.462L18.4901 1.16336C18.7678 0.908727 19.0748 0.711968 19.4109 0.573079C19.747 0.434191 20.0998 0.364746 20.4692 0.364746C20.8387 0.364746 21.1975 0.434191 21.5456 0.573079C21.8938 0.711968 22.1947 0.920301 22.4484 1.19808L24.3581 3.14252C24.6359 3.39715 24.8387 3.69808 24.9665 4.0453C25.0942 4.39252 25.1577 4.73974 25.1567 5.08697C25.1567 5.45734 25.0933 5.81058 24.9665 6.14669C24.8396 6.4828 24.6368 6.78928 24.3581 7.06613L6.05951 25.3647H0.156738ZM17.4831 8.03835L16.5109 7.03141L18.4901 9.01058L17.4831 8.03835Z" fill="#282F4A"/>
</svg>
