<svg width="200" height="20" viewBox="0 0 200 20" fill="none" xmlns="http://www.w3.org/2000/svg">
<g clip-path="url(#clip0_1452_2483)">
<path d="M153.024 1.48962C152.274 0.976801 151.358 0.610501 150.274 0.3663C149.191 0.1221 147.941 0 146.524 0H124.469V20H128.552V13.2845H146.552C148.413 13.2845 149.997 13.0647 151.302 12.6007C152.608 12.1368 153.608 11.4042 154.302 10.3785C154.997 9.35287 155.33 8.05861 155.33 6.47131C155.33 5.29915 155.135 4.29792 154.747 3.46764C154.33 2.66178 153.774 2.00244 153.024 1.48962ZM149.913 9.37729C149.135 9.91453 147.885 10.2076 146.191 10.2076H128.552V3.07692H146.191C147.885 3.07692 149.135 3.34554 149.913 3.9072C150.691 4.44444 151.108 5.37241 151.108 6.66667C151.108 7.93651 150.719 8.84005 149.913 9.37729Z" fill="white"/>
<path d="M185.277 0H184.11H181.471H180.277L169.332 14.8718V0H165.555V20H169.332H170.138L173.444 15.4335H192.11L195.416 20H199.999L185.277 0ZM175.305 12.8449L182.777 2.49084L190.249 12.8449H175.305Z" fill="white"/>
<path d="M160.442 0C159.192 0 158.164 0.903541 158.164 2.00244C158.164 3.10134 159.192 4.00488 160.442 4.00488C161.692 4.00488 162.72 3.10134 162.72 2.00244C162.692 0.903541 161.692 0 160.442 0Z" fill="#A3191B"/>
<path d="M116.334 1.07448C113.779 0.3663 110.529 0 106.556 0C102.584 0 99.3064 0.3663 96.7509 1.07448C94.1953 1.78266 92.3064 2.88156 91.0564 4.32235C89.8342 5.78755 89.1953 7.69231 89.1953 10.0122C89.1953 12.3077 89.8064 14.2125 91.0564 15.6777C92.2786 17.1429 94.1953 18.2418 96.7509 18.9499C99.3064 19.6581 102.584 20.0244 106.556 20.0244C110.501 20.0244 113.779 19.6581 116.334 18.9499C118.64 18.315 120.39 17.3626 121.64 16.1172V3.9072C120.39 2.63736 118.64 1.7094 116.334 1.07448ZM119.223 13.138C118.751 14.0171 118.001 14.7497 116.973 15.3114C115.945 15.8974 114.584 16.3126 112.862 16.5812C111.14 16.8498 109.056 16.9963 106.556 16.9963C103.223 16.9963 100.584 16.7521 98.6398 16.2637C96.6953 15.7753 95.2786 15.0183 94.4453 13.9927C93.5842 12.967 93.1675 11.6484 93.1675 10.0122C93.1675 8.37607 93.5842 7.05739 94.4453 6.03175C95.3064 5.00611 96.6953 4.24909 98.6398 3.76068C100.584 3.27228 103.251 3.02808 106.556 3.02808C109.056 3.02808 111.14 3.1746 112.862 3.44322C114.584 3.71184 115.945 4.1514 116.973 4.71307C118.001 5.29915 118.751 6.00733 119.223 6.88645C119.695 7.76557 119.918 8.81563 119.918 10.0366C119.918 11.2088 119.695 12.2589 119.223 13.138Z" fill="white"/>
<path d="M61.1415 9.45055C61.1415 11.16 60.7248 12.5763 59.8915 13.6996C59.0582 14.823 57.8082 15.6288 56.0859 16.1661C54.3915 16.7033 52.2248 16.9719 49.6137 16.9719C46.9748 16.9719 44.8082 16.7033 43.1137 16.1661C41.3915 15.6288 40.1415 14.7985 39.3082 13.6752C38.4748 12.5519 38.0859 11.1355 38.0859 9.42613V0H34.0859V10.0855C34.0859 12.381 34.697 14.2369 35.947 15.7021C37.197 17.1673 38.9748 18.2418 41.3082 18.9499C43.6415 19.6581 46.3915 20.0244 49.6137 20.0244C52.8359 20.0244 55.6137 19.6581 57.9193 18.9499C60.2526 18.2418 62.0304 17.1673 63.2804 15.7021C64.5304 14.2613 65.1415 12.381 65.1415 10.0855V6.08059H61.1415V9.45055Z" fill="white"/>
<path d="M92.6406 0H65.1406H61.1406V3.07692H65.1406H74.8628V20H78.9462V3.07692H88.0851C89.1684 1.80708 90.6962 0.781441 92.6406 0Z" fill="white"/>
<path d="M27.1684 8.05861H8.14062V11.1844H27.1684H31.224V0H27.1684V8.05861Z" fill="white"/>
<path d="M31.2474 14.2129H27.1641V20.0004H31.2474V14.2129Z" fill="white"/>
<path d="M4.08333 0H0V20H4.08333V11.1844V8.05861V0Z" fill="white"/>
</g>
<defs>
<clipPath id="clip0_1452_2483">
<rect width="200" height="20" fill="white"/>
</clipPath>
</defs>
</svg>
