<svg width="32" height="32" viewBox="0 0 32 32" fill="none" xmlns="http://www.w3.org/2000/svg">
<g clip-path="url(#clip0_1261_9855)">
<path d="M27.4896 11.2673C26.0896 5.10732 20.7162 2.33398 15.9962 2.33398C15.9962 2.33398 15.9962 2.33398 15.9829 2.33398C11.2762 2.33398 5.88955 5.09398 4.48955 11.254C2.92955 18.134 7.14289 23.9606 10.9562 27.6273C12.3696 28.9873 14.1829 29.6673 15.9962 29.6673C17.8096 29.6673 19.6229 28.9873 21.0229 27.6273C24.8362 23.9606 29.0496 18.1473 27.4896 11.2673ZM15.9962 17.9473C13.6762 17.9473 11.7962 16.0673 11.7962 13.7473C11.7962 11.4273 13.6762 9.54732 15.9962 9.54732C18.3162 9.54732 20.1962 11.4273 20.1962 13.7473C20.1962 16.0673 18.3162 17.9473 15.9962 17.9473Z" fill="#228CDB"/>
</g>
<defs>
<clipPath id="clip0_1261_9855">
<rect width="32" height="32" fill="white"/>
</clipPath>
</defs>
</svg>
