<svg width="26" height="25" viewBox="0 0 26 25" fill="none" xmlns="http://www.w3.org/2000/svg">
<path d="M12.8782 10.8177C14.9941 10.8177 16.7094 9.12398 16.7094 7.03469C16.7094 4.94541 14.9941 3.25171 12.8782 3.25171C10.7622 3.25171 9.04688 4.94541 9.04688 7.03469C9.04688 9.12398 10.7622 10.8177 12.8782 10.8177Z" fill="#949494"/>
<path d="M7.06711 7.41298H7.45346C7.45346 7.29224 7.45346 7.18761 7.45346 7.06687C7.45581 6.06044 7.73975 5.07474 8.27316 4.22128C8.80657 3.36782 9.56817 2.68066 10.4718 2.23753C10.2043 1.62144 9.7749 1.0893 9.22924 0.697642C8.68358 0.305984 8.04203 0.0694291 7.37273 0.013101C6.70343 -0.0432271 6.03137 0.0827754 5.42793 0.377726C4.82449 0.672676 4.3122 1.12556 3.94547 1.68828C3.57875 2.25099 3.37128 2.90253 3.34511 3.57369C3.31894 4.24485 3.47503 4.91056 3.79682 5.50013C4.11861 6.0897 4.59407 6.5811 5.17271 6.92215C5.75135 7.2632 6.41156 7.44116 7.08321 7.43712L7.06711 7.41298Z" fill="#949494"/>
<path d="M18.3194 7.03481V7.38091H18.7057C19.3684 7.37426 20.0171 7.18908 20.5834 6.84485C21.1498 6.50062 21.6128 6.01009 21.9239 5.42487C22.2349 4.83966 22.3825 4.18141 22.3509 3.51941C22.3194 2.85742 22.11 2.21616 21.7448 1.66314C21.3796 1.11012 20.872 0.665789 20.2755 0.376915C19.679 0.0880419 19.0157 -0.0346886 18.3554 0.0216423C17.695 0.0779732 17.0621 0.311282 16.5232 0.697011C15.9842 1.08274 15.5593 1.60662 15.293 2.21352C16.1969 2.65491 16.9593 3.34033 17.4941 4.19232C18.0289 5.04431 18.3148 6.02889 18.3194 7.03481Z" fill="#949494"/>
<path d="M16.3315 11.1958C17.9319 11.5126 19.4792 12.0545 20.9275 12.8056C21.1315 12.9177 21.3163 13.0617 21.4748 13.2322H25.7568V10.4794C25.7576 10.3739 25.7295 10.2701 25.6756 10.1793C25.6217 10.0885 25.544 10.0142 25.451 9.96431C23.3648 8.87313 21.0442 8.30679 18.6899 8.31428H18.1586C17.8797 9.44814 17.2382 10.4599 16.3315 11.1958Z" fill="#949494"/>
<path d="M3.64617 14.7939C3.6447 14.3886 3.75417 13.9905 3.96273 13.6429C4.17129 13.2953 4.47099 13.0114 4.82936 12.822C6.27758 12.0709 7.82495 11.5289 9.42528 11.2122C8.52306 10.4826 7.88192 9.4799 7.59818 8.35481H7.06695C4.71267 8.34731 2.39203 8.91366 0.305874 10.0048C0.212804 10.0547 0.135121 10.129 0.0812172 10.2198C0.027313 10.3106 -0.000764905 10.4144 1.58497e-05 10.52V15.6632H3.64617V14.7939Z" fill="#949494"/>
<path d="M15.6631 19.4381H20.4602V20.565H15.6631V19.4381Z" fill="#949494"/>
<path d="M24.7986 15.0677H19.269V14.2628C19.269 14.0493 19.1842 13.8446 19.0333 13.6936C18.8823 13.5427 18.6776 13.4579 18.4641 13.4579C18.2507 13.4579 18.0459 13.5427 17.895 13.6936C17.744 13.8446 17.6592 14.0493 17.6592 14.2628V15.0677H16.0977V12.7898C15.0388 12.5675 13.9602 12.4515 12.8782 12.4437C10.3378 12.4332 7.83363 13.0468 5.58588 14.2306C5.48576 14.2825 5.40195 14.3611 5.34371 14.4577C5.28548 14.5543 5.25508 14.6651 5.25587 14.7779V19.2934H10.9786V24.1951C10.9786 24.4086 11.0634 24.6133 11.2144 24.7643C11.3653 24.9152 11.5701 25 11.7835 25H24.7986C25.0121 25 25.2168 24.9152 25.3678 24.7643C25.5187 24.6133 25.6035 24.4086 25.6035 24.1951V15.8726C25.6035 15.6591 25.5187 15.4544 25.3678 15.3034C25.2168 15.1525 25.0121 15.0677 24.7986 15.0677ZM23.9937 23.4063H12.5884V16.6775H17.6592V17.4099C17.6592 17.6234 17.744 17.8281 17.895 17.9791C18.0459 18.13 18.2507 18.2148 18.4641 18.2148C18.6776 18.2148 18.8823 18.13 19.0333 17.9791C19.1842 17.8281 19.269 17.6234 19.269 17.4099V16.6775H23.9937V23.4063Z" fill="#949494"/>
</svg>
