<svg width="32" height="32" viewBox="0 0 32 32" fill="none" xmlns="http://www.w3.org/2000/svg">
<path d="M16.0026 16.9993C11.7759 16.9993 8.33594 13.5593 8.33594 9.33268C8.33594 5.10602 11.7759 1.66602 16.0026 1.66602C20.2293 1.66602 23.6693 5.10602 23.6693 9.33268C23.6693 13.5593 20.2293 16.9993 16.0026 16.9993ZM16.0026 3.66602C12.8826 3.66602 10.3359 6.21268 10.3359 9.33268C10.3359 12.4527 12.8826 14.9993 16.0026 14.9993C19.1226 14.9993 21.6693 12.4527 21.6693 9.33268C21.6693 6.21268 19.1226 3.66602 16.0026 3.66602Z" fill="#1967D3"/>
<path d="M27.4535 30.3333C26.9069 30.3333 26.4535 29.88 26.4535 29.3333C26.4535 24.7333 21.7602 21 16.0002 21C10.2402 21 5.54687 24.7333 5.54687 29.3333C5.54687 29.88 5.09354 30.3333 4.54687 30.3333C4.00021 30.3333 3.54688 29.88 3.54688 29.3333C3.54688 23.64 9.13354 19 16.0002 19C22.8669 19 28.4535 23.64 28.4535 29.3333C28.4535 29.88 28.0002 30.3333 27.4535 30.3333Z" fill="#1967D3"/>
</svg>
